<svg xmlns="http://www.w3.org/2000/svg" xmlns:xlink="http://www.w3.org/1999/xlink" width="40" zoomAndPan="magnify" viewBox="0 0 30 30.000001" height="40" preserveAspectRatio="xMidYMid meet" version="1.0"><defs><clipPath id="f92f539231"><path d="M 7 1.898438 L 22 1.898438 L 22 27.304688 L 7 27.304688 Z M 7 1.898438 " clip-rule="nonzero"/></clipPath><clipPath id="f050de3110"><path d="M 21 15 L 29.515625 15 L 29.515625 27.304688 L 21 27.304688 Z M 21 15 " clip-rule="nonzero"/></clipPath><clipPath id="76982e982c"><path d="M 0.484375 15 L 9 15 L 9 27.304688 L 0.484375 27.304688 Z M 0.484375 15 " clip-rule="nonzero"/></clipPath></defs><g clip-path="url(#f92f539231)"><path fill="#e0701d" d="M 15 8.160156 L 12.546875 12.421875 L 21.011719 27.113281 L 9.351562 27.113281 L 7.554688 23.996094 L 15.613281 23.996094 L 8.949219 12.421875 L 15 1.914062 L 21.097656 12.484375 L 19.292969 15.597656 Z M 15 8.160156 " fill-opacity="1" fill-rule="nonzero"/></g><g clip-path="url(#f050de3110)"><path fill="#ffffff" d="M 29.515625 27.113281 L 25.917969 27.113281 L 21.101562 18.753906 L 22.898438 15.625 Z M 29.515625 27.113281 " fill-opacity="1" fill-rule="nonzero"/></g><g clip-path="url(#76982e982c)"><path fill="#ffffff" d="M 8.917969 18.746094 L 4.082031 27.113281 L 0.484375 27.113281 L 7.117188 15.621094 Z M 8.917969 18.746094 " fill-opacity="1" fill-rule="nonzero"/></g></svg>