<?xml version="1.0" standalone="no"?>
<!DOCTYPE svg PUBLIC "-//W3C//DTD SVG 20010904//EN"
 "http://www.w3.org/TR/2001/REC-SVG-20010904/DTD/svg10.dtd">
<svg version="1.0" xmlns="http://www.w3.org/2000/svg"
 width="40.000000pt" height="40.000000pt" viewBox="0 0 40.000000 40.000000"
 preserveAspectRatio="xMidYMid meet">

<g transform="translate(0.000000,40.000000) scale(0.100000,-0.100000)"
fill="#000000" stroke="none">
<path d="M0 200 l0 -200 200 0 200 0 0 200 0 200 -200 0 -200 0 0 -200z m219
113 c5 -21 12 -54 16 -73 15 -79 10 -76 110 -55 11 3 7 -2 -10 -10 -16 -8 -42
-14 -57 -15 -33 0 -34 -4 -7 -54 13 -25 17 -42 11 -48 -7 -7 -12 1 -17 20 -5
24 -16 34 -55 51 -63 27 -65 27 -80 -9 -21 -51 -87 -89 -104 -61 -4 5 3 7 14
4 40 -11 102 89 66 109 -24 14 -19 31 8 26 22 -4 26 0 41 56 30 106 48 122 64
59z"/>
<path d="M178 241 c-9 -28 -13 -52 -10 -55 7 -8 62 -7 62 0 0 13 -24 89 -30
97 -3 4 -13 -15 -22 -42z"/>
<path d="M201 156 c2 -2 14 -9 26 -15 19 -10 22 -9 17 4 -4 8 -15 15 -27 15
-11 0 -18 -2 -16 -4z"/>
</g>
</svg>
